<?xml version="1.0" standalone="no"?>
<!DOCTYPE svg PUBLIC "-//W3C//DTD SVG 20010904//EN"
 "http://www.w3.org/TR/2001/REC-SVG-20010904/DTD/svg10.dtd">
<svg version="1.0" xmlns="http://www.w3.org/2000/svg"
 width="960.000000pt" height="960.000000pt" viewBox="0 0 960.000000 960.000000"
 preserveAspectRatio="xMidYMid meet">
<metadata>
Created by potrace 1.14, written by Peter Selinger 2001-2017
</metadata>
<g transform="translate(0.000000,960.000000) scale(0.100000,-0.100000)"
fill="#000000" stroke="none">
<path d="M2400 8000 l0 -400 -400 0 -400 0 0 200 0 200 -200 0 -200 0 0 -200
0 -200 -600 0 -600 0 0 -200 0 -200 400 0 400 0 0 -200 0 -200 -400 0 -400 0
0 -200 0 -200 200 0 200 0 0 -200 0 -200 -200 0 -200 0 0 -600 0 -600 200 0
200 0 0 -200 0 -200 -200 0 -200 0 0 -200 0 -200 400 0 400 0 0 -96 0 -97 -45
5 c-24 3 -43 2 -40 -2 3 -4 -102 -11 -233 -15 -130 -4 -239 -11 -242 -15 -3
-4 -23 -5 -44 -1 -22 3 -74 1 -115 -4 l-76 -11 -3 -52 c-2 -29 -2 -52 0 -53
41 -12 719 -41 757 -32 16 4 22 2 17 -5 -3 -6 2 -13 11 -15 14 -4 13 -5 -4 -6
-12 0 -24 5 -26 12 -4 9 -6 9 -6 0 -1 -10 -83 -13 -376 -13 l-375 0 0 -200 0
-200 400 0 400 0 0 -200 0 -200 -200 0 -200 0 0 -200 0 -200 -200 0 -200 0 0
-200 0 -200 200 0 200 0 0 200 0 200 200 0 200 0 0 200 0 200 200 0 200 0 0
200 0 200 200 0 200 0 0 251 0 251 63 -6 c34 -3 95 -8 135 -11 40 -2 111 -9
157 -15 46 -6 87 -10 92 -9 4 1 11 0 16 -1 14 -5 23 -7 72 -15 66 -12 65 -11
100 -15 17 -2 -10 -9 -60 -16 l-90 -12 116 3 c128 3 219 -10 219 -31 0 -23 -4
-29 -18 -27 -7 0 -10 -2 -7 -5 4 -4 -17 -12 -47 -19 -49 -10 -45 -11 50 -6 86
5 102 4 102 -9 0 -10 -21 -20 -67 -30 l-68 -16 66 5 c56 4 67 3 73 -12 6 -16
4 -16 -11 -4 -14 11 -15 12 -9 0 5 -8 3 -17 -5 -22 -10 -6 -3 -9 21 -9 34 0
34 0 12 -16 -18 -12 -21 -19 -11 -30 6 -7 15 -12 19 -9 5 3 11 -1 13 -7 4 -9
6 -9 6 1 1 12 4 11 14 -3 7 -9 22 -18 35 -19 12 0 22 -4 22 -7 0 -6 -133 -59
-188 -75 -13 -4 -21 -9 -19 -12 3 -2 54 9 114 26 128 37 131 37 108 11 -9 -10
-15 -26 -11 -35 3 -8 5 -18 5 -21 -1 -13 23 -21 52 -18 16 2 29 -1 29 -6 0 -6
20 -10 44 -10 25 0 48 -5 52 -12 5 -7 2 -9 -7 -4 -8 4 -6 1 3 -7 16 -13 16
-15 -7 -37 -13 -13 -22 -28 -18 -34 3 -6 3 -8 -2 -4 -4 4 -24 -8 -44 -28 -20
-19 -64 -55 -98 -80 -35 -25 -60 -51 -56 -57 3 -6 1 -7 -5 -3 -6 3 -15 -2 -21
-12 -5 -10 -66 -53 -135 -96 -69 -43 -126 -80 -126 -83 0 -4 143 72 165 87 6
4 26 7 45 7 19 0 45 5 57 11 12 7 32 12 45 12 21 -1 21 -2 6 -13 -9 -7 -51
-36 -93 -65 -41 -30 -75 -56 -75 -59 0 -5 2 -4 132 80 59 38 120 70 135 72 24
2 25 1 9 -10 -16 -12 -16 -14 -1 -23 16 -8 13 -15 -19 -63 -20 -30 -40 -58
-44 -64 -21 -26 -21 -44 1 -47 14 -2 23 -11 25 -26 4 -26 10 -27 33 -6 9 8 26
16 38 17 11 1 21 4 21 8 0 4 12 10 28 14 36 10 92 12 86 3 -2 -3 0 -9 6 -13
22 -13 7 -39 -72 -128 -119 -132 -126 -148 -15 -32 53 55 101 99 107 97 6 -1
9 1 6 6 -3 5 10 15 29 22 19 8 31 18 28 24 -3 6 -3 8 2 4 4 -4 15 -2 24 5 8 6
5 -4 -8 -23 -18 -27 -11 -22 30 20 30 30 70 73 90 96 73 83 143 117 157 75 3
-9 0 -11 -8 -6 -9 5 -11 4 -6 -3 4 -7 18 -12 32 -12 17 0 23 -4 18 -12 -5 -8
-2 -9 10 -5 19 8 14 -5 -39 -88 -78 -123 -66 -122 16 0 54 80 56 81 111 76 9
0 29 -13 43 -28 14 -15 25 -24 25 -20 0 4 9 3 20 -3 11 -6 20 -7 20 -2 0 5 6
9 13 9 21 0 14 -52 -22 -152 -18 -49 -28 -85 -23 -80 5 6 24 51 42 100 19 50
38 96 43 103 12 16 109 10 115 -7 2 -6 12 -7 26 -1 l22 8 -12 -61 c-7 -34 -15
-87 -18 -117 -5 -52 -4 -50 14 25 11 44 23 96 27 115 7 29 13 35 43 41 25 6
40 3 52 -8 9 -8 27 -13 40 -12 13 1 41 -5 62 -15 22 -9 46 -14 52 -12 7 3 14
0 17 -7 2 -8 8 -7 19 4 24 24 81 45 85 32 2 -6 18 -7 46 -2 24 4 46 4 51 -2
16 -14 79 -12 70 4 -4 6 2 4 14 -7 12 -10 28 -16 37 -13 8 4 15 2 15 -3 0 -6
7 -10 15 -10 8 0 19 -9 25 -20 7 -14 7 -20 0 -20 -5 0 -10 -5 -10 -11 0 -6 9
-8 23 -4 l22 7 -22 -17 c-13 -9 -28 -25 -34 -36 -9 -18 -7 -20 28 -18 21 1 43
1 48 -1 21 -5 46 0 41 9 -7 10 20 9 30 -2 4 -3 16 -2 27 4 14 8 18 8 12 0 -5
-8 1 -10 18 -6 22 6 28 0 61 -58 20 -36 36 -68 36 -71 0 -3 -56 -6 -125 -6
l-125 0 0 -600 0 -600 200 0 200 0 0 200 0 200 200 0 200 0 0 200 0 200 600 0
600 0 0 200 0 200 -255 0 c-238 0 -254 1 -249 18 5 16 5 16 -6 0 -10 -17 -39
-18 -363 -18 -332 0 -350 1 -334 17 9 10 27 18 40 18 16 0 22 6 21 20 0 17 5
20 28 17 16 -3 28 0 28 7 0 6 6 11 14 11 8 0 24 12 36 28 12 15 24 26 26 24 2
-1 19 13 38 31 18 19 48 44 65 56 17 12 28 27 25 33 -7 11 40 -12 71 -35 19
-14 18 -17 -28 -86 -26 -39 -43 -71 -37 -71 5 0 10 4 10 9 0 4 14 26 31 47 17
22 37 48 45 58 13 20 14 20 51 1 21 -11 42 -21 46 -23 4 -2 6 0 5 6 -2 5 13
31 32 57 19 27 38 53 41 58 4 5 31 -1 63 -16 65 -30 73 -28 16 4 -50 28 -59
47 -20 43 22 -3 28 0 24 11 -4 10 1 15 16 15 14 0 19 -4 14 -12 -6 -10 -4 -10
7 -1 16 15 33 17 24 3 -6 -9 8 -15 29 -11 5 1 16 -5 26 -14 12 -11 20 -13 25
-6 4 7 12 8 24 1 10 -5 21 -7 24 -3 4 3 2 -7 -3 -23 -5 -16 -16 -51 -24 -78
-25 -77 -12 -65 25 24 26 65 37 80 51 77 9 -3 17 -2 16 2 -2 20 3 31 13 25 6
-3 14 -1 18 5 5 7 18 3 41 -14 24 -18 36 -22 41 -13 4 7 5 16 3 20 -3 4 2 5
11 1 17 -6 17 -6 -1 -133 -8 -56 11 -14 30 65 10 39 20 77 23 85 3 8 6 18 5
21 -1 3 9 5 21 4 12 -1 35 -3 51 -4 23 -1 26 -4 17 -15 -10 -12 -8 -13 11 -8
13 3 28 12 34 20 8 11 13 12 18 4 4 -7 12 -12 17 -12 6 0 7 4 4 10 -3 6 1 7 9
4 9 -3 16 -12 16 -20 0 -8 5 -14 12 -14 6 0 8 3 5 7 -9 8 43 34 54 27 5 -3 8
0 7 8 -2 8 6 13 19 13 11 0 25 3 29 8 4 4 17 7 28 8 20 0 20 1 1 8 -15 6 -11
9 22 14 23 4 44 13 46 19 4 9 6 9 6 2 1 -8 12 -9 39 -4 65 15 109 15 126 1 9
-7 16 -10 16 -7 0 4 10 2 21 -5 13 -7 19 -7 15 -1 -3 6 -2 13 3 17 5 3 14 -3
20 -12 9 -16 10 -16 11 -1 0 9 5 20 12 24 7 5 8 3 3 -6 -6 -9 -4 -11 4 -6 7 5
10 14 7 22 -3 8 -1 14 4 14 6 0 10 -6 11 -12 0 -7 4 -3 10 10 8 22 10 23 31 6
13 -10 50 -59 83 -111 55 -85 103 -153 92 -128 -2 6 -37 63 -77 128 -69 112
-83 158 -44 143 9 -4 13 -2 8 5 -9 15 38 1 51 -15 94 -114 138 -166 142 -166
2 0 -11 20 -29 45 -18 25 -47 69 -65 98 -28 46 -30 53 -16 64 9 7 20 10 24 7
5 -3 9 0 9 5 0 17 63 13 90 -6 24 -16 24 -16 11 1 -13 15 -13 19 0 26 16 11
22 7 111 -69 60 -52 59 -50 -22 34 -47 48 -77 85 -67 82 19 -7 24 8 6 19 -8 4
-7 9 2 15 19 12 32 11 24 -1 -3 -5 -1 -10 5 -10 16 0 62 49 55 59 -3 6 7 6 27
0 41 -11 41 -11 32 2 -8 14 26 -3 81 -41 67 -46 125 -80 125 -76 0 3 -30 25
-67 50 -38 26 -79 55 -93 67 -25 20 -25 20 18 -1 50 -24 55 -18 10 11 l-33 21
28 -5 c19 -3 25 -1 18 7 -13 17 -9 46 6 46 7 0 16 7 19 15 4 8 13 15 20 15 8
0 17 7 20 15 4 8 17 15 30 15 16 0 22 4 18 14 -3 8 0 17 5 21 6 3 9 10 6 15
-3 5 4 7 15 5 12 -2 18 0 14 6 -3 6 4 18 15 28 12 10 24 32 27 50 4 21 12 31
25 31 24 0 35 20 18 32 -10 6 0 8 29 4 53 -8 54 0 1 14 l-41 11 23 20 c14 12
38 19 68 20 l46 1 -35 12 c-27 8 -35 16 -34 33 1 12 -2 20 -7 18 -13 -9 -21
14 -10 32 6 10 11 14 11 9 0 -6 6 -2 12 7 12 15 26 14 188 -4 96 -11 189 -18
205 -17 17 2 -40 11 -125 22 -85 10 -170 21 -189 25 l-35 7 26 25 c26 26 150
65 169 54 5 -4 9 -1 9 5 0 7 6 10 13 7 6 -2 59 2 117 9 58 7 108 13 113 14 4
0 7 -220 7 -490 l0 -490 200 0 200 0 0 -400 0 -400 200 0 200 0 0 -200 0 -200
200 0 200 0 0 200 0 200 -200 0 -200 0 0 400 0 400 -125 0 c-112 0 -127 2
-145 20 -11 11 -27 20 -35 20 -8 0 -15 4 -15 9 0 5 20 11 45 13 25 2 45 0 45
-3 0 -4 11 -9 25 -11 32 -7 33 8 0 16 -14 4 -22 12 -20 19 3 7 -7 20 -22 29
-21 13 -23 18 -10 18 9 0 17 5 17 11 0 12 80 8 114 -6 35 -15 13 28 -25 48
-19 10 -41 28 -49 40 -12 20 -12 21 3 9 13 -11 17 -10 25 4 9 15 16 16 67 6
71 -15 75 -15 75 -2 0 6 -6 10 -12 10 -7 0 -30 11 -51 23 -36 22 -38 25 -23
40 9 8 16 20 16 24 0 5 8 18 18 29 10 11 22 32 26 47 6 26 10 27 65 27 87 0
102 9 55 32 -20 10 -43 18 -50 18 -6 0 -17 7 -24 16 -8 8 -9 14 -4 13 19 -3
58 3 47 8 -19 7 -16 43 7 87 10 21 25 63 31 92 7 30 19 60 27 67 8 6 45 15 81
18 l66 6 -62 1 c-35 1 -63 6 -63 11 0 4 23 6 50 3 33 -3 50 -1 50 7 0 6 -3 10
-7 10 -23 -5 -96 16 -100 28 -7 18 10 36 39 39 13 1 74 8 136 15 l112 12 0 99
0 98 -39 0 c-22 0 -43 5 -47 11 -4 6 -21 8 -43 5 -26 -4 -30 -3 -16 4 18 8 17
9 -7 9 -16 1 -28 6 -28 11 0 6 -11 10 -25 10 -14 0 -25 4 -25 9 0 6 12 6 32 0
41 -11 48 -11 48 1 0 6 -3 9 -7 8 -5 -1 -34 4 -65 11 -49 10 -59 16 -64 38 -8
29 19 58 44 48 7 -2 11 -1 8 4 -3 5 13 11 36 15 53 9 45 15 -33 24 -45 6 -63
12 -61 21 2 8 -3 11 -10 8 -10 -3 -12 7 -9 39 1 24 -1 44 -6 44 -6 0 -15 25
-22 56 -17 75 -152 340 -171 336 -12 -3 -13 -1 -2 9 14 15 17 33 3 25 -4 -3
-13 6 -20 21 -10 22 -10 24 1 15 10 -8 20 -6 38 9 l25 21 -27 -6 c-15 -3 -29
-2 -33 3 -3 5 7 12 22 14 16 3 5 4 -22 4 -43 0 -55 4 -80 29 -16 16 -28 31
-27 34 6 10 -121 141 -150 156 -17 9 -46 16 -64 17 -19 1 -29 4 -23 7 6 4 -2
15 -18 25 -15 10 -32 24 -36 32 -4 7 -13 13 -20 13 -16 0 -63 70 -59 87 2 7
-4 13 -13 13 -8 0 -15 -4 -15 -8 0 -5 -7 -9 -15 -9 -19 0 -28 26 -15 42 7 8 7
15 1 19 -5 3 -12 0 -14 -6 -3 -7 -6 -3 -6 8 -1 24 -27 40 -35 21 -3 -9 -5 -9
-5 1 -1 6 -11 12 -22 12 -17 0 -20 5 -16 21 4 17 3 19 -6 10 -35 -35 -37 -21
-37 359 l0 370 -200 0 -200 0 0 200 0 200 -200 0 -200 0 0 200 0 200 -400 0
-400 0 0 200 0 200 -400 0 -400 0 0 200 0 200 -400 0 -400 0 0 200 0 200 -600
0 -600 0 0 200 0 200 -200 0 -200 0 0 -200 0 -200 -400 0 -400 0 0 200 0 200
-200 0 -200 0 0 -400z m6107 -2802 c-3 -8 -6 -5 -6 6 -1 11 2 17 5 13 3 -3 4
-12 1 -19z m-1307 -198 l0 -200 -95 0 c-60 0 -95 4 -95 11 0 5 -8 9 -17 8 -10
-2 -33 5 -52 15 -18 10 -30 13 -27 7 4 -6 4 -11 -1 -12 -4 0 -19 -2 -32 -5
-19 -3 -22 -1 -18 13 27 89 54 194 49 188 -4 -3 -23 -45 -43 -93 -28 -68 -40
-86 -54 -84 -10 2 -22 -2 -27 -10 -6 -9 -7 -5 -3 10 6 22 5 23 -14 13 -12 -7
-22 -9 -22 -6 -1 3 -3 10 -4 15 -1 6 -3 14 -4 19 -2 15 -31 21 -51 11 -15 -8
-21 -6 -29 7 -6 10 -11 14 -11 9 0 -4 -12 -1 -26 9 -18 12 -29 13 -38 6 -7 -6
-17 -7 -21 -3 -5 4 -5 1 0 -7 6 -11 2 -12 -21 -7 -16 4 -58 11 -93 16 -35 5
-65 11 -67 13 -2 2 -10 32 -18 68 l-14 64 -1 -66 c-1 -71 -17 -94 -40 -57 -10
16 -10 19 1 13 11 -7 11 -5 0 6 -11 12 -14 12 -22 -1 -5 -8 -10 -10 -10 -4 0
7 -16 11 -40 10 -22 0 -42 4 -43 9 -2 6 -11 4 -20 -4 -9 -7 -14 -17 -11 -22 3
-5 0 -8 -8 -7 -22 5 -49 46 -78 121 -31 77 -40 72 -15 -9 17 -57 19 -78 6 -69
-5 3 -12 1 -16 -4 -3 -6 -13 -7 -22 -4 -12 5 -15 2 -10 -10 5 -14 2 -15 -19
-6 -14 5 -31 7 -37 3 -7 -3 -3 2 8 12 12 10 14 15 5 12 -22 -8 -63 10 -54 23
5 8 1 8 -15 0 -18 -10 -20 -9 -14 5 4 12 3 15 -5 10 -7 -4 -12 -15 -12 -24 0
-15 -2 -15 -10 -2 -7 12 -12 12 -22 2 -14 -14 -32 -16 -24 -3 4 5 -3 7 -14 4
-11 -3 -26 -1 -33 4 -16 13 -57 10 -86 -6 -12 -7 -31 -11 -42 -8 -10 3 -19 1
-21 -4 -2 -5 -20 0 -41 11 -22 12 -37 16 -37 9 0 -6 -9 -9 -20 -6 -15 4 -20 0
-20 -15 0 -10 -4 -16 -10 -13 -5 3 -10 1 -10 -5 0 -6 -7 -18 -15 -26 -13 -14
-15 -14 -15 1 0 11 -5 15 -15 11 -8 -3 -15 0 -15 6 0 6 -3 8 -7 5 -3 -4 -12
-2 -20 5 -11 9 -13 8 -11 -2 2 -8 -6 -16 -17 -18 -11 -2 -16 -1 -12 4 4 4 -14
13 -40 20 -48 12 -83 3 -83 -22 0 -19 -141 -2 -169 20 -12 9 -13 8 -6 -3 6
-11 1 -13 -24 -9 -18 3 -34 1 -37 -4 -3 -5 -10 -6 -15 -3 -5 4 -9 -3 -9 -14 0
-24 -4 -25 -29 -11 -11 5 -31 6 -48 1 -32 -9 -64 1 -44 13 6 4 11 13 11 19 0
8 -3 9 -8 1 -9 -14 -45 -27 -37 -14 3 6 1 10 -4 10 -6 0 -11 -4 -11 -10 0 -5
-8 -10 -17 -10 -10 0 -26 -7 -37 -15 -13 -10 -25 -11 -42 -5 -13 5 -24 6 -24
1 0 -12 -66 -7 -82 7 -8 6 -18 9 -21 5 -16 -16 -5 22 24 78 67 133 58 146 -11
16 -23 -42 -45 -75 -50 -72 -4 3 -10 -2 -14 -10 -4 -12 -11 -13 -33 -4 -15 5
-41 9 -58 9 -56 -3 -65 -1 -65 21 0 28 -17 15 -34 -25 -11 -28 -20 -34 -50
-38 -20 -2 -36 0 -36 5 0 5 -7 7 -15 3 -8 -3 -15 -2 -15 3 0 4 -11 13 -25 19
-32 15 -38 15 -30 2 3 -6 -1 -7 -10 -4 -8 4 -21 1 -29 -5 -8 -7 -18 -11 -22
-10 -23 4 -44 -2 -39 -11 8 -13 -18 -8 -27 5 -4 6 -8 1 -8 -9 0 -11 -3 -16 -6
-13 -10 9 -46 -12 -39 -23 3 -6 -1 -7 -10 -4 -8 4 -21 2 -28 -3 -20 -16 -134
-17 -143 -1 -5 7 -14 36 -20 63 l-12 50 -1 -67 -1 -68 -45 0 c-31 0 -47 -5
-51 -15 -4 -8 -10 -15 -16 -15 -5 0 -6 5 -2 11 10 17 -39 0 -53 -19 -11 -13
-13 23 -13 186 l0 202 1800 0 1800 0 0 -200z m-1336 -16 c3 -8 2 -12 -4 -9 -6
3 -10 10 -10 16 0 14 7 11 14 -7z m211 -34 c-3 -5 -12 -10 -18 -10 -7 0 -6 4
3 10 19 12 23 12 15 0z m-1974 -43 c-10 -9 -11 -8 -5 6 3 10 9 15 12 12 3 -3
0 -11 -7 -18z m599 -1 c0 -2 -7 -7 -16 -10 -8 -3 -12 -2 -9 4 6 10 25 14 25 6z
m4331 -239 c-10 -9 -11 -8 -5 6 3 10 9 15 12 12 3 -3 0 -11 -7 -18z m-5431
-279 c-1 -37 -14 -58 -36 -58 -13 0 -24 -5 -24 -11 0 -15 -27 -40 -42 -38 -33
4 -38 -1 -28 -27 9 -22 8 -25 -5 -20 -13 4 -14 2 -5 -14 9 -16 7 -18 -14 -16
-14 1 -32 8 -40 16 -10 7 -16 8 -16 2 0 -6 4 -13 10 -17 15 -9 0 -35 -20 -35
-10 0 -25 6 -32 13 -26 24 -128 97 -128 91 0 -3 21 -26 48 -51 l47 -45 -40 27
c-34 23 -31 19 15 -23 47 -43 53 -53 44 -69 -8 -13 -24 -18 -55 -19 -78 -2
-79 -1 -79 83 0 56 3 72 13 67 10 -6 10 -4 0 7 -8 8 -13 40 -13 81 l0 68 200
0 c153 0 200 -3 200 -12z m880 -43 c-30 -30 -60 -55 -67 -55 -18 0 -18 96 0
103 6 3 37 6 67 6 l54 1 -54 -55z m211 46 c-8 -5 -21 -7 -29 -3 -10 3 -13 1
-8 -6 5 -8 2 -10 -8 -6 -9 3 -16 2 -16 -4 0 -10 -119 -72 -139 -72 -6 0 -11
-4 -11 -10 0 -5 -4 -10 -10 -10 -19 0 -9 19 36 69 l46 51 77 0 c48 0 71 -4 62
-9z m109 -16 c0 -16 -6 -25 -16 -25 -8 0 -13 -4 -10 -8 3 -5 -1 -9 -9 -9 -8 0
-11 5 -8 11 7 12 -28 -13 -38 -27 -3 -5 -9 -1 -13 9 -4 10 -4 15 0 11 4 -4 14
2 22 14 20 28 9 34 -25 13 l-28 -18 24 27 c19 20 34 27 63 27 34 0 38 -3 38
-25z m953 -11 c20 -19 36 -43 36 -52 -1 -15 -2 -15 -6 1 -2 9 -12 17 -21 17
-13 0 -14 -2 -3 -9 29 -19 -18 -21 -99 -5 -47 9 -60 21 -60 55 0 29 1 29 58
29 52 0 61 -3 95 -36z m140 16 c9 -11 12 -20 6 -20 -5 0 -7 -5 -3 -12 5 -7 3
-8 -7 -2 -8 5 -16 9 -19 9 -14 3 -80 35 -80 39 0 4 19 6 43 6 30 0 48 -6 60
-20z m81 5 c7 -19 -32 -20 -56 -1 -16 11 -14 13 16 14 22 1 36 -4 40 -13z
m1146 2 c-14 -6 -60 -36 -104 -65 -53 -36 -84 -51 -95 -46 -9 4 -19 7 -23 6
-4 -1 -16 10 -27 24 -13 17 -26 24 -36 20 -9 -3 -14 -2 -11 3 3 5 -1 11 -9 15
-8 3 -15 17 -15 31 l0 25 173 -1 c139 0 167 -3 147 -12z m78 -23 c3 -29 0 -32
-30 -37 -46 -7 -48 0 -8 34 19 15 30 29 24 29 -6 0 -17 -7 -24 -16 -8 -8 -23
-20 -34 -26 -16 -8 -14 -3 9 21 36 39 59 37 63 -5z m2 -269 c0 -26 -22 -33
-49 -16 -11 7 -7 12 15 25 16 8 30 15 32 16 1 0 2 -11 2 -25z m-3980 -96 c0
-5 -4 -9 -10 -9 -5 0 -10 7 -10 16 0 8 5 12 10 9 6 -3 10 -10 10 -16z m3195
-14 c37 -25 57 -25 84 -1 20 18 21 18 21 1 0 -14 3 -15 15 -5 13 10 17 7 30
-23 14 -34 15 -34 70 -32 l56 2 -33 -28 c-31 -26 -31 -28 -10 -29 12 0 21 -3
21 -7 -4 -27 5 -33 49 -35 45 -1 46 -2 8 -5 -24 -3 -46 -13 -57 -26 -17 -21
-17 -23 9 -45 l27 -23 -47 4 c-27 3 -48 1 -48 -4 0 -5 -7 -9 -16 -9 -10 0 -14
-5 -10 -16 3 -8 2 -13 -3 -9 -5 3 -11 0 -13 -6 -2 -6 -14 -2 -30 10 -34 27
-49 24 -70 -14 -16 -29 -17 -29 -18 -6 l0 23 -21 -23 c-16 -19 -19 -20 -15 -6
3 10 3 29 0 42 -5 22 -10 24 -51 20 -30 -3 -42 -1 -37 6 10 16 -17 29 -46 23
-18 -4 -21 -3 -11 4 22 15 5 42 -26 42 -22 0 -25 2 -13 10 8 5 11 10 5 10 -5
0 5 10 23 21 30 20 32 23 17 39 -14 16 -14 18 0 24 9 3 26 6 37 6 18 0 19 2 7
17 -13 15 -12 16 9 11 17 -5 23 -1 28 17 3 13 3 29 -1 34 -10 17 27 8 60 -14z
m-3971 -2 c6 -13 -3 -15 -71 -10 l-78 6 50 -14 c28 -7 62 -14 78 -14 41 -1 37
-10 -23 -52 -11 -8 -12 -12 -3 -16 9 -3 5 -13 -11 -30 -18 -19 -37 -27 -73
-31 -26 -2 -53 -8 -58 -12 -11 -9 -133 -6 -225 5 -30 3 -73 2 -95 -3 -35 -7
-23 -10 82 -16 118 -8 158 -21 73 -24 -23 -1 -45 -4 -49 -6 -3 -3 -47 -7 -96
-11 -50 -3 -103 -8 -120 -10 -16 -2 -68 -7 -115 -10 -47 -3 -91 -8 -97 -10
-10 -3 -13 28 -13 136 l0 139 419 0 c372 -1 420 -3 425 -17z m5956 -54 c0 -62
-2 -70 -17 -65 -10 2 -40 7 -67 11 -27 3 -53 8 -56 10 -4 3 -33 5 -64 6 -31 1
-56 6 -56 11 0 5 -15 8 -33 7 -18 -2 -38 0 -45 5 -6 4 -16 4 -22 1 -5 -3 -10
-2 -10 3 0 6 -8 8 -19 5 -10 -2 -25 2 -32 9 -7 8 -24 13 -38 11 -23 -3 -24 -2
-6 6 18 8 17 10 -12 16 -17 4 -34 13 -37 21 -5 12 37 14 254 14 l260 0 0 -71z
m-4556 -44 c40 -27 59 -28 84 -4 18 16 22 17 22 4 0 -18 16 -20 26 -4 4 8 14
-2 26 -25 18 -35 26 -39 88 -38 3 0 16 3 30 7 20 5 17 1 -12 -19 -43 -30 -48
-46 -15 -46 18 0 19 -2 7 -10 -12 -8 -11 -10 6 -10 11 0 24 -4 30 -9 5 -5 25
-11 44 -14 33 -4 32 -4 -8 -5 -24 -1 -41 -6 -38 -10 3 -5 -6 -15 -19 -22 l-25
-13 35 -24 c19 -13 35 -26 35 -30 0 -3 -22 -3 -50 -1 -27 3 -50 1 -50 -3 0 -5
-7 -9 -16 -9 -11 0 -15 -6 -11 -20 3 -11 1 -18 -4 -14 -5 3 -9 1 -9 -5 0 -14
-31 -2 -54 22 -14 14 -21 16 -26 7 -4 -7 -13 -9 -19 -6 -6 4 -11 2 -11 -4 0
-6 -9 -20 -20 -32 -19 -21 -20 -21 -20 -2 -1 18 -1 18 -14 2 -14 -19 -32 -25
-21 -9 3 6 3 28 -1 50 -6 38 -8 40 -28 29 -24 -13 -86 -19 -86 -7 0 4 8 10 17
13 15 6 15 8 3 16 -8 6 -28 10 -43 10 -26 0 -27 1 -13 16 25 24 19 34 -21 35
-21 1 -30 3 -20 6 9 2 15 9 12 14 -4 5 5 14 19 20 14 7 23 16 20 20 -3 5 0 9
7 9 7 0 4 7 -7 15 -18 13 -18 14 -1 15 10 0 15 5 12 10 -4 6 5 10 21 10 24 0
25 2 13 17 -13 15 -12 16 9 11 25 -7 46 20 37 45 -8 19 23 15 59 -8z m3347
-434 c3 -1 6 -19 6 -41 0 -35 -2 -38 -19 -29 -23 12 -24 20 0 12 11 -4 10 0
-6 11 -12 10 -27 14 -32 11 -6 -4 -9 -2 -8 4 2 5 -6 17 -17 25 -19 15 -18 16
25 12 25 -2 48 -5 51 -5z m-3903 -40 c4 -1 -37 -42 -65 -65 l-23 -19 0 47 0
48 43 -6 c23 -3 43 -5 45 -5z m3733 -9 c13 -10 38 -26 54 -36 l30 -19 -21 24
c-23 26 -22 51 2 42 7 -3 11 -9 8 -14 -3 -5 2 -6 10 -3 8 3 33 -6 55 -20 l41
-26 0 -75 0 -76 -117 3 -117 3 -35 50 -35 50 44 -40 c37 -34 40 -36 22 -10
-12 17 -30 41 -41 55 -26 32 -26 40 -1 40 11 0 20 -4 20 -10 0 -5 7 -10 16
-10 14 0 14 3 4 15 -15 18 1 20 18 3 9 -9 12 -9 12 2 0 9 9 5 27 -11 15 -13 9
-3 -15 23 -23 26 -42 50 -42 53 0 12 39 4 61 -13z m-1363 4 c-2 -1 -15 -12
-30 -25 l-28 -24 0 26 c0 22 4 26 30 25 17 -1 29 -1 28 -2z m-3133 -16 c-3 -5
-12 -10 -18 -10 -7 0 -6 4 3 10 19 12 23 12 15 0z m4403 -157 l37 -33 -82 0
-82 0 1 53 c0 51 0 52 17 28 37 -56 53 -66 27 -17 -37 70 -33 90 10 41 19 -22
51 -55 72 -72z m-2222 38 c-3 -4 3 -7 12 -7 9 -1 26 -5 36 -9 14 -6 17 -5 12
3 -8 14 3 15 22 3 10 -6 8 -10 -10 -16 l-23 -8 23 -4 c12 -2 22 -11 22 -19 0
-19 -39 -18 -46 1 -4 8 -14 15 -23 15 -18 0 -61 35 -61 49 0 5 9 7 20 4 11 -3
18 -8 16 -12z m-2079 -23 c-3 -8 -6 -5 -6 6 -1 11 2 17 5 13 3 -3 4 -12 1 -19z
m3432 -5 l-10 -28 25 24 c31 29 41 24 25 -13 -11 -24 -17 -26 -73 -26 l-61 0
35 35 c19 18 43 34 52 34 15 1 16 -3 7 -26z m341 -8 c0 -24 -5 -35 -15 -35
-18 0 -18 -1 -4 39 14 40 19 39 19 -4z m2845 25 c16 -7 14 -9 -12 -7 -17 0
-29 5 -27 9 6 10 13 9 39 -2z m-4752 -14 c3 4 22 -3 42 -15 48 -28 54 -27 24
5 l-24 27 30 -16 c17 -8 39 -22 50 -30 18 -14 14 -15 -44 -16 -53 0 -68 3 -92
23 -15 13 -25 26 -22 30 3 3 11 1 18 -4 7 -5 15 -7 18 -4z m-1823 -10 c0 -3
-4 -8 -10 -11 -5 -3 -10 -1 -10 4 0 6 5 11 10 11 6 0 10 -2 10 -4z m3457 -21
c-4 -8 -11 -15 -17 -15 -7 0 -7 6 0 21 13 23 26 19 17 -6z m-2579 3 c-3 -7
-15 -14 -29 -16 -23 -2 -23 -2 -5 13 24 18 39 20 34 3z m2632 -3 c0 -8 -9 -15
-20 -15 -20 0 -26 11 -13 23 12 13 33 7 33 -8z m160 0 c0 -11 -11 -15 -37 -15
l-38 1 25 14 c33 19 50 19 50 0z m-2760 -5 c0 -5 -5 -10 -11 -10 -5 0 -7 5 -4
10 3 6 8 10 11 10 2 0 4 -4 4 -10z m5462 -88 c3 -11 0 -19 -7 -19 -7 0 -10 8
-7 19 2 10 6 18 7 18 1 0 5 -8 7 -18z m75 -68 c-3 -3 -12 -4 -19 -1 -8 3 -5 6
6 6 11 1 17 -2 13 -5z m-127 -91 c-14 -3 -31 -10 -38 -15 -9 -8 -11 -7 -6 6 4
10 17 16 38 15 27 -2 28 -2 6 -6z m-1950 -49 c0 -8 -19 -13 -24 -6 -3 5 1 9 9
9 8 0 15 -2 15 -3z m1923 -38 c-3 -4 -9 -2 -14 5 -13 22 -11 31 5 17 8 -7 12
-17 9 -22z m-83 0 c0 -3 -4 -8 -10 -11 -5 -3 -10 -1 -10 4 0 6 5 11 10 11 6 0
10 -2 10 -4z m-1945 -26 c7 -12 -2 -12 -30 0 -19 8 -19 9 2 9 12 1 25 -3 28
-9z m1965 -34 c0 -4 -6 -3 -13 3 -8 6 -16 9 -19 6 -2 -3 -5 1 -5 9 0 11 4 12
19 3 10 -7 18 -16 18 -21z m-3252 -123 c2 -11 -5 -30 -15 -42 l-18 -22 -31 23
c-25 18 -29 26 -19 35 7 6 16 9 19 6 3 -4 6 -1 6 5 0 11 27 21 45 17 6 -1 11
-11 13 -22z m105 8 c5 -1 -40 -93 -59 -119 -5 -8 -54 31 -54 43 0 8 11 22 25
33 13 11 21 22 18 26 -3 3 1 6 11 6 9 0 15 4 12 8 -3 5 5 7 17 6 12 -1 25 -3
30 -3z m-1039 -135 c8 3 16 -2 19 -11 5 -13 10 -13 26 -3 15 9 22 9 32 -3 19
-19 23 -54 9 -78 -9 -19 -8 -20 12 -12 18 6 33 2 66 -21 41 -28 42 -28 42 -7
0 15 5 19 15 15 15 -6 65 12 65 23 0 9 79 30 105 29 11 -1 26 -8 34 -15 10
-11 16 -12 21 -3 4 7 9 -3 12 -24 2 -20 -1 -41 -6 -46 -6 -6 -86 -10 -198 -10
l-187 0 -33 47 c-70 101 -90 136 -74 130 9 -4 17 -1 17 6 1 7 3 4 6 -5 2 -9
10 -15 17 -12z m-104 -6 c0 -5 5 -10 11 -10 5 0 7 6 3 13 -18 33 29 -26 71
-88 l48 -70 -27 -3 c-43 -5 -51 2 -95 81 -46 83 -47 87 -26 87 8 0 15 -4 15
-10z"/>
<path d="M5319 5145 c5 -11 41 -54 81 -95 39 -41 66 -65 61 -54 -6 12 -42 55
-81 95 -39 41 -67 65 -61 54z"/>
<path d="M5525 5030 c3 -5 8 -10 11 -10 2 0 4 5 4 10 0 6 -5 10 -11 10 -5 0
-7 -4 -4 -10z"/>
<path d="M4507 4969 c7 -7 15 -10 18 -7 3 3 -2 9 -12 12 -14 6 -15 5 -6 -5z"/>
<path d="M7070 3295 c13 -14 26 -25 28 -25 3 0 -5 11 -18 25 -13 14 -26 25
-28 25 -3 0 5 -11 18 -25z"/>
<path d="M8605 5130 c3 -5 8 -10 11 -10 2 0 4 5 4 10 0 6 -5 10 -11 10 -5 0
-7 -4 -4 -10z"/>
<path d="M9140 4745 c13 -16 30 -11 30 8 0 7 -4 6 -10 -3 -6 -10 -10 -11 -10
-2 0 6 -5 12 -11 12 -8 0 -8 -5 1 -15z"/>
<path d="M8348 3603 c7 -3 16 -2 19 1 4 3 -2 6 -13 5 -11 0 -14 -3 -6 -6z"/>
<path d="M7725 3270 c3 -5 8 -10 11 -10 2 0 4 5 4 10 0 6 -5 10 -11 10 -5 0
-7 -4 -4 -10z"/>
<path d="M7900 2906 c0 -2 30 -23 68 -47 37 -23 77 -49 90 -57 12 -8 22 -12
22 -9 0 3 -35 27 -77 54 -98 62 -103 65 -103 59z"/>
<path d="M1600 1000 l0 -200 -200 0 -200 0 0 -200 0 -200 -200 0 -200 0 0
-200 0 -200 200 0 200 0 0 200 0 200 200 0 200 0 0 200 0 200 200 0 200 0 0
200 0 200 -200 0 -200 0 0 -200z"/>
<path d="M8400 1000 l0 -200 200 0 200 0 0 -200 0 -200 200 0 200 0 0 -200 0
-200 200 0 200 0 0 200 0 200 -200 0 -200 0 0 200 0 200 -200 0 -200 0 0 200
0 200 -200 0 -200 0 0 -200z"/>
</g>
</svg>
